<svg xmlns="http://www.w3.org/2000/svg" xmlns:xlink="http://www.w3.org/1999/xlink" width="1000" zoomAndPan="magnify" viewBox="0 0 750 225" height="300" preserveAspectRatio="xMidYMid meet" version="1.0"><defs><g/><clipPath id="016b8125b9"><path d="M 254.667969 19.257812 L 441.417969 19.257812 L 441.417969 206.007812 L 254.667969 206.007812 Z M 254.667969 19.257812 " clip-rule="nonzero"/></clipPath><clipPath id="a676f34b55"><path d="M 403.039062 19.257812 L 254.667969 19.257812 L 254.667969 206.007812 L 403.039062 206.007812 C 424.140625 206.007812 441.417969 188.730469 441.417969 167.628906 L 441.417969 19.257812 Z M 403.039062 19.257812 " clip-rule="nonzero"/></clipPath><linearGradient x1="29.810985" gradientTransform="matrix(0.489515, 0, 0, 0.489515, 254.66888, 19.25858)" y1="-22.494437" x2="351.649091" gradientUnits="userSpaceOnUse" y2="404.024571" id="554e043ce8"><stop stop-opacity="1" stop-color="rgb(49.798584%, 30.589294%, 76.858521%)" offset="0"/><stop stop-opacity="1" stop-color="rgb(49.798584%, 30.589294%, 76.858521%)" offset="0.125"/><stop stop-opacity="1" stop-color="rgb(49.798584%, 30.589294%, 76.858521%)" offset="0.1875"/><stop stop-opacity="1" stop-color="rgb(49.798584%, 30.589294%, 76.858521%)" offset="0.21875"/><stop stop-opacity="1" stop-color="rgb(49.629211%, 30.548096%, 76.689148%)" offset="0.234375"/><stop stop-opacity="1" stop-color="rgb(49.272156%, 30.462646%, 76.332092%)" offset="0.242188"/><stop stop-opacity="1" stop-color="rgb(48.892212%, 30.371094%, 75.952148%)" offset="0.25"/><stop stop-opacity="1" stop-color="rgb(48.513794%, 30.281067%, 75.57373%)" offset="0.257812"/><stop stop-opacity="1" stop-color="rgb(48.13385%, 30.189514%, 75.193787%)" offset="0.265625"/><stop stop-opacity="1" stop-color="rgb(47.755432%, 30.097961%, 74.815369%)" offset="0.273438"/><stop stop-opacity="1" stop-color="rgb(47.377014%, 30.007935%, 74.436951%)" offset="0.28125"/><stop stop-opacity="1" stop-color="rgb(46.99707%, 29.916382%, 74.057007%)" offset="0.289062"/><stop stop-opacity="1" stop-color="rgb(46.618652%, 29.826355%, 73.678589%)" offset="0.296875"/><stop stop-opacity="1" stop-color="rgb(46.238708%, 29.734802%, 73.298645%)" offset="0.304688"/><stop stop-opacity="1" stop-color="rgb(45.860291%, 29.64325%, 72.920227%)" offset="0.3125"/><stop stop-opacity="1" stop-color="rgb(45.480347%, 29.553223%, 72.541809%)" offset="0.320312"/><stop stop-opacity="1" stop-color="rgb(45.101929%, 29.46167%, 72.161865%)" offset="0.328125"/><stop stop-opacity="1" stop-color="rgb(44.723511%, 29.370117%, 71.783447%)" offset="0.335938"/><stop stop-opacity="1" stop-color="rgb(44.343567%, 29.28009%, 71.403503%)" offset="0.34375"/><stop stop-opacity="1" stop-color="rgb(43.965149%, 29.188538%, 71.025085%)" offset="0.351562"/><stop stop-opacity="1" stop-color="rgb(43.585205%, 29.098511%, 70.645142%)" offset="0.359375"/><stop stop-opacity="1" stop-color="rgb(43.206787%, 29.006958%, 70.266724%)" offset="0.367188"/><stop stop-opacity="1" stop-color="rgb(42.828369%, 28.915405%, 69.888306%)" offset="0.375"/><stop stop-opacity="1" stop-color="rgb(42.448425%, 28.825378%, 69.508362%)" offset="0.382812"/><stop stop-opacity="1" stop-color="rgb(42.070007%, 28.733826%, 69.129944%)" offset="0.390625"/><stop stop-opacity="1" stop-color="rgb(41.690063%, 28.643799%, 68.75%)" offset="0.398438"/><stop stop-opacity="1" stop-color="rgb(41.311646%, 28.552246%, 68.371582%)" offset="0.40625"/><stop stop-opacity="1" stop-color="rgb(40.933228%, 28.460693%, 67.993164%)" offset="0.414062"/><stop stop-opacity="1" stop-color="rgb(40.553284%, 28.370667%, 67.61322%)" offset="0.421875"/><stop stop-opacity="1" stop-color="rgb(40.174866%, 28.279114%, 67.234802%)" offset="0.429688"/><stop stop-opacity="1" stop-color="rgb(39.794922%, 28.187561%, 66.854858%)" offset="0.43006"/><stop stop-opacity="1" stop-color="rgb(39.605713%, 28.143311%, 66.665649%)" offset="0.4375"/><stop stop-opacity="1" stop-color="rgb(39.416504%, 28.097534%, 66.47644%)" offset="0.445312"/><stop stop-opacity="1" stop-color="rgb(39.038086%, 28.005981%, 66.098022%)" offset="0.453125"/><stop stop-opacity="1" stop-color="rgb(38.658142%, 27.915955%, 65.718079%)" offset="0.460938"/><stop stop-opacity="1" stop-color="rgb(38.279724%, 27.824402%, 65.339661%)" offset="0.46875"/><stop stop-opacity="1" stop-color="rgb(37.89978%, 27.732849%, 64.959717%)" offset="0.476562"/><stop stop-opacity="1" stop-color="rgb(37.521362%, 27.642822%, 64.581299%)" offset="0.484375"/><stop stop-opacity="1" stop-color="rgb(37.142944%, 27.55127%, 64.202881%)" offset="0.492188"/><stop stop-opacity="1" stop-color="rgb(36.763%, 27.461243%, 63.822937%)" offset="0.5"/><stop stop-opacity="1" stop-color="rgb(36.384583%, 27.36969%, 63.444519%)" offset="0.507812"/><stop stop-opacity="1" stop-color="rgb(36.004639%, 27.278137%, 63.064575%)" offset="0.515625"/><stop stop-opacity="1" stop-color="rgb(35.626221%, 27.18811%, 62.686157%)" offset="0.523438"/><stop stop-opacity="1" stop-color="rgb(35.246277%, 27.096558%, 62.307739%)" offset="0.53125"/><stop stop-opacity="1" stop-color="rgb(34.867859%, 27.005005%, 61.927795%)" offset="0.539062"/><stop stop-opacity="1" stop-color="rgb(34.489441%, 26.914978%, 61.549377%)" offset="0.546875"/><stop stop-opacity="1" stop-color="rgb(34.109497%, 26.823425%, 61.169434%)" offset="0.554688"/><stop stop-opacity="1" stop-color="rgb(33.731079%, 26.733398%, 60.791016%)" offset="0.5625"/><stop stop-opacity="1" stop-color="rgb(33.351135%, 26.641846%, 60.411072%)" offset="0.56994"/><stop stop-opacity="1" stop-color="rgb(33.161926%, 26.596069%, 60.221863%)" offset="0.570312"/><stop stop-opacity="1" stop-color="rgb(32.972717%, 26.550293%, 60.032654%)" offset="0.578125"/><stop stop-opacity="1" stop-color="rgb(32.594299%, 26.460266%, 59.654236%)" offset="0.585938"/><stop stop-opacity="1" stop-color="rgb(32.214355%, 26.368713%, 59.274292%)" offset="0.59375"/><stop stop-opacity="1" stop-color="rgb(31.835938%, 26.278687%, 58.895874%)" offset="0.601563"/><stop stop-opacity="1" stop-color="rgb(31.455994%, 26.187134%, 58.51593%)" offset="0.609375"/><stop stop-opacity="1" stop-color="rgb(31.077576%, 26.095581%, 58.137512%)" offset="0.617188"/><stop stop-opacity="1" stop-color="rgb(30.699158%, 26.005554%, 57.759094%)" offset="0.625"/><stop stop-opacity="1" stop-color="rgb(30.319214%, 25.914001%, 57.37915%)" offset="0.632812"/><stop stop-opacity="1" stop-color="rgb(29.940796%, 25.822449%, 57.000732%)" offset="0.640625"/><stop stop-opacity="1" stop-color="rgb(29.560852%, 25.732422%, 56.620789%)" offset="0.648438"/><stop stop-opacity="1" stop-color="rgb(29.182434%, 25.640869%, 56.242371%)" offset="0.65625"/><stop stop-opacity="1" stop-color="rgb(28.804016%, 25.550842%, 55.863953%)" offset="0.664062"/><stop stop-opacity="1" stop-color="rgb(28.424072%, 25.45929%, 55.484009%)" offset="0.671875"/><stop stop-opacity="1" stop-color="rgb(28.045654%, 25.367737%, 55.105591%)" offset="0.679688"/><stop stop-opacity="1" stop-color="rgb(27.66571%, 25.27771%, 54.725647%)" offset="0.6875"/><stop stop-opacity="1" stop-color="rgb(27.287292%, 25.186157%, 54.347229%)" offset="0.695312"/><stop stop-opacity="1" stop-color="rgb(26.908875%, 25.09613%, 53.968811%)" offset="0.703125"/><stop stop-opacity="1" stop-color="rgb(26.528931%, 25.004578%, 53.588867%)" offset="0.710938"/><stop stop-opacity="1" stop-color="rgb(26.150513%, 24.913025%, 53.210449%)" offset="0.71875"/><stop stop-opacity="1" stop-color="rgb(25.770569%, 24.822998%, 52.830505%)" offset="0.726562"/><stop stop-opacity="1" stop-color="rgb(25.392151%, 24.731445%, 52.452087%)" offset="0.734375"/><stop stop-opacity="1" stop-color="rgb(25.012207%, 24.639893%, 52.073669%)" offset="0.742188"/><stop stop-opacity="1" stop-color="rgb(24.633789%, 24.549866%, 51.693726%)" offset="0.75"/><stop stop-opacity="1" stop-color="rgb(24.255371%, 24.458313%, 51.315308%)" offset="0.757812"/><stop stop-opacity="1" stop-color="rgb(23.875427%, 24.368286%, 50.935364%)" offset="0.765625"/><stop stop-opacity="1" stop-color="rgb(23.497009%, 24.276733%, 50.556946%)" offset="0.773438"/><stop stop-opacity="1" stop-color="rgb(23.117065%, 24.185181%, 50.177002%)" offset="0.78125"/><stop stop-opacity="1" stop-color="rgb(22.738647%, 24.095154%, 49.798584%)" offset="0.789062"/><stop stop-opacity="1" stop-color="rgb(22.360229%, 24.003601%, 49.420166%)" offset="0.796875"/><stop stop-opacity="1" stop-color="rgb(21.980286%, 23.913574%, 49.040222%)" offset="0.804688"/><stop stop-opacity="1" stop-color="rgb(21.601868%, 23.822021%, 48.661804%)" offset="0.8125"/><stop stop-opacity="1" stop-color="rgb(21.221924%, 23.730469%, 48.28186%)" offset="0.820313"/><stop stop-opacity="1" stop-color="rgb(20.843506%, 23.640442%, 47.903442%)" offset="0.828125"/><stop stop-opacity="1" stop-color="rgb(20.465088%, 23.548889%, 47.525024%)" offset="0.835938"/><stop stop-opacity="1" stop-color="rgb(20.085144%, 23.457336%, 47.145081%)" offset="0.84375"/><stop stop-opacity="1" stop-color="rgb(19.706726%, 23.36731%, 46.766663%)" offset="0.851562"/><stop stop-opacity="1" stop-color="rgb(19.326782%, 23.275757%, 46.386719%)" offset="0.859375"/><stop stop-opacity="1" stop-color="rgb(18.948364%, 23.18573%, 46.008301%)" offset="0.867188"/><stop stop-opacity="1" stop-color="rgb(18.569946%, 23.094177%, 45.629883%)" offset="0.875"/><stop stop-opacity="1" stop-color="rgb(18.190002%, 23.002625%, 45.249939%)" offset="0.882812"/><stop stop-opacity="1" stop-color="rgb(17.811584%, 22.912598%, 44.871521%)" offset="0.890625"/><stop stop-opacity="1" stop-color="rgb(17.431641%, 22.821045%, 44.491577%)" offset="0.898437"/><stop stop-opacity="1" stop-color="rgb(17.053223%, 22.731018%, 44.113159%)" offset="0.90625"/><stop stop-opacity="1" stop-color="rgb(16.674805%, 22.639465%, 43.734741%)" offset="0.914062"/><stop stop-opacity="1" stop-color="rgb(16.294861%, 22.547913%, 43.354797%)" offset="0.921875"/><stop stop-opacity="1" stop-color="rgb(15.916443%, 22.457886%, 42.976379%)" offset="0.929688"/><stop stop-opacity="1" stop-color="rgb(15.536499%, 22.366333%, 42.596436%)" offset="0.9375"/><stop stop-opacity="1" stop-color="rgb(15.158081%, 22.27478%, 42.218018%)" offset="0.945312"/><stop stop-opacity="1" stop-color="rgb(14.779663%, 22.184753%, 41.8396%)" offset="0.953125"/><stop stop-opacity="1" stop-color="rgb(14.399719%, 22.093201%, 41.459656%)" offset="0.960937"/><stop stop-opacity="1" stop-color="rgb(14.021301%, 22.003174%, 41.081238%)" offset="0.96875"/><stop stop-opacity="1" stop-color="rgb(13.641357%, 21.911621%, 40.701294%)" offset="0.976562"/><stop stop-opacity="1" stop-color="rgb(13.262939%, 21.820068%, 40.322876%)" offset="0.984375"/><stop stop-opacity="1" stop-color="rgb(12.882996%, 21.730042%, 39.944458%)" offset="0.992188"/><stop stop-opacity="1" stop-color="rgb(12.504578%, 21.638489%, 39.564514%)" offset="1"/></linearGradient><clipPath id="aae63b3ccd"><rect x="0" width="144" y="0" height="196"/></clipPath><clipPath id="293d8541c9"><rect x="0" width="279" y="0" height="146"/></clipPath><clipPath id="eb20fc6218"><rect x="0" width="194" y="0" height="146"/></clipPath></defs><g clip-path="url(#016b8125b9)"><g clip-path="url(#a676f34b55)"><path fill="url(#554e043ce8)" d="M 254.667969 19.257812 L 254.667969 206.007812 L 441.417969 206.007812 L 441.417969 19.257812 Z M 254.667969 19.257812 " fill-rule="nonzero"/></g></g><g transform="matrix(1, 0, 0, 1, 276, 14)"><g clip-path="url(#aae63b3ccd)"><g fill="#ffffff" fill-opacity="1"><g transform="translate(0.447943, 146.496938)"><g><path d="M 69.09375 -17.171875 L 32.8125 -17.171875 L 27 0 L 2.21875 0 L 37.390625 -97.203125 L 64.796875 -97.203125 L 99.96875 0 L 74.90625 0 Z M 63 -35.453125 L 50.953125 -71.03125 L 39.046875 -35.453125 Z M 63 -35.453125 "/></g></g></g><g fill="#ffffff" fill-opacity="1"><g transform="translate(102.488687, 146.496938)"><g><path d="M 32.265625 -97.203125 L 32.265625 0 L 8.578125 0 L 8.578125 -97.203125 Z M 32.265625 -97.203125 "/></g></g></g></g></g><g transform="matrix(1, 0, 0, 1, 452, 39)"><g clip-path="url(#293d8541c9)"><g fill="#1a3660" fill-opacity="1"><g transform="translate(1.527988, 109.24653)"><g><path d="M 50.21875 -37.125 C 54.414062 -36.226562 57.785156 -34.144531 60.328125 -30.875 C 62.867188 -27.613281 64.140625 -23.890625 64.140625 -19.703125 C 64.140625 -13.648438 62.023438 -8.851562 57.796875 -5.3125 C 53.566406 -1.769531 47.671875 0 40.109375 0 L 6.390625 0 L 6.390625 -72.390625 L 38.984375 -72.390625 C 46.335938 -72.390625 52.09375 -70.703125 56.25 -67.328125 C 60.414062 -63.960938 62.5 -59.394531 62.5 -53.625 C 62.5 -49.363281 61.378906 -45.820312 59.140625 -43 C 56.910156 -40.1875 53.9375 -38.226562 50.21875 -37.125 Z M 24.03125 -43.109375 L 35.578125 -43.109375 C 38.460938 -43.109375 40.675781 -43.742188 42.21875 -45.015625 C 43.769531 -46.285156 44.546875 -48.160156 44.546875 -50.640625 C 44.546875 -53.109375 43.769531 -54.992188 42.21875 -56.296875 C 40.675781 -57.609375 38.460938 -58.265625 35.578125 -58.265625 L 24.03125 -58.265625 Z M 37.015625 -14.234375 C 39.972656 -14.234375 42.257812 -14.898438 43.875 -16.234375 C 45.488281 -17.578125 46.296875 -19.519531 46.296875 -22.0625 C 46.296875 -24.613281 45.453125 -26.609375 43.765625 -28.046875 C 42.085938 -29.492188 39.769531 -30.21875 36.8125 -30.21875 L 24.03125 -30.21875 L 24.03125 -14.234375 Z M 37.015625 -14.234375 "/></g></g></g><g fill="#1a3660" fill-opacity="1"><g transform="translate(69.481511, 109.24653)"><g><path d="M 40.625 0.71875 C 33.820312 0.71875 27.582031 -0.859375 21.90625 -4.015625 C 16.238281 -7.179688 11.738281 -11.597656 8.40625 -17.265625 C 5.070312 -22.941406 3.40625 -29.320312 3.40625 -36.40625 C 3.40625 -43.488281 5.070312 -49.847656 8.40625 -55.484375 C 11.738281 -61.117188 16.238281 -65.515625 21.90625 -68.671875 C 27.582031 -71.835938 33.820312 -73.421875 40.625 -73.421875 C 47.4375 -73.421875 53.675781 -71.835938 59.34375 -68.671875 C 65.019531 -65.515625 69.488281 -61.117188 72.75 -55.484375 C 76.019531 -49.847656 77.65625 -43.488281 77.65625 -36.40625 C 77.65625 -29.320312 76.003906 -22.941406 72.703125 -17.265625 C 69.398438 -11.597656 64.929688 -7.179688 59.296875 -4.015625 C 53.660156 -0.859375 47.4375 0.71875 40.625 0.71875 Z M 40.625 -15.359375 C 46.40625 -15.359375 51.03125 -17.285156 54.5 -21.140625 C 57.96875 -24.992188 59.703125 -30.082031 59.703125 -36.40625 C 59.703125 -42.800781 57.96875 -47.90625 54.5 -51.71875 C 51.03125 -55.53125 46.40625 -57.4375 40.625 -57.4375 C 34.78125 -57.4375 30.125 -55.546875 26.65625 -51.765625 C 23.1875 -47.984375 21.453125 -42.863281 21.453125 -36.40625 C 21.453125 -30.007812 23.1875 -24.898438 26.65625 -21.078125 C 30.125 -17.265625 34.78125 -15.359375 40.625 -15.359375 Z M 40.625 -15.359375 "/></g></g></g><g fill="#1a3660" fill-opacity="1"><g transform="translate(150.530772, 109.24653)"><g><path d="M 32.59375 0.71875 C 27.289062 0.71875 22.539062 -0.140625 18.34375 -1.859375 C 14.15625 -3.578125 10.804688 -6.117188 8.296875 -9.484375 C 5.785156 -12.859375 4.460938 -16.914062 4.328125 -21.65625 L 23.09375 -21.65625 C 23.375 -18.976562 24.300781 -16.929688 25.875 -15.515625 C 27.457031 -14.109375 29.523438 -13.40625 32.078125 -13.40625 C 34.679688 -13.40625 36.738281 -14.003906 38.25 -15.203125 C 39.769531 -16.410156 40.53125 -18.082031 40.53125 -20.21875 C 40.53125 -22 39.925781 -23.472656 38.71875 -24.640625 C 37.519531 -25.816406 36.039062 -26.78125 34.28125 -27.53125 C 32.53125 -28.289062 30.039062 -29.148438 26.8125 -30.109375 C 22.132812 -31.554688 18.316406 -33 15.359375 -34.4375 C 12.410156 -35.882812 9.867188 -38.015625 7.734375 -40.828125 C 5.597656 -43.648438 4.53125 -47.332031 4.53125 -51.875 C 4.53125 -58.613281 6.972656 -63.890625 11.859375 -67.703125 C 16.742188 -71.515625 23.101562 -73.421875 30.9375 -73.421875 C 38.914062 -73.421875 45.34375 -71.515625 50.21875 -67.703125 C 55.101562 -63.890625 57.71875 -58.578125 58.0625 -51.765625 L 38.984375 -51.765625 C 38.847656 -54.109375 37.988281 -55.945312 36.40625 -57.28125 C 34.820312 -58.625 32.789062 -59.296875 30.3125 -59.296875 C 28.1875 -59.296875 26.46875 -58.726562 25.15625 -57.59375 C 23.851562 -56.457031 23.203125 -54.828125 23.203125 -52.703125 C 23.203125 -50.359375 24.300781 -48.53125 26.5 -47.21875 C 28.695312 -45.914062 32.132812 -44.507812 36.8125 -43 C 41.488281 -41.414062 45.285156 -39.898438 48.203125 -38.453125 C 51.128906 -37.015625 53.65625 -34.921875 55.78125 -32.171875 C 57.914062 -29.421875 58.984375 -25.878906 58.984375 -21.546875 C 58.984375 -17.421875 57.9375 -13.675781 55.84375 -10.3125 C 53.75 -6.945312 50.707031 -4.265625 46.71875 -2.265625 C 42.726562 -0.273438 38.019531 0.71875 32.59375 0.71875 Z M 32.59375 0.71875 "/></g></g></g><g fill="#1a3660" fill-opacity="1"><g transform="translate(213.947186, 109.24653)"><g><path d="M 32.59375 0.71875 C 27.289062 0.71875 22.539062 -0.140625 18.34375 -1.859375 C 14.15625 -3.578125 10.804688 -6.117188 8.296875 -9.484375 C 5.785156 -12.859375 4.460938 -16.914062 4.328125 -21.65625 L 23.09375 -21.65625 C 23.375 -18.976562 24.300781 -16.929688 25.875 -15.515625 C 27.457031 -14.109375 29.523438 -13.40625 32.078125 -13.40625 C 34.679688 -13.40625 36.738281 -14.003906 38.25 -15.203125 C 39.769531 -16.410156 40.53125 -18.082031 40.53125 -20.21875 C 40.53125 -22 39.925781 -23.472656 38.71875 -24.640625 C 37.519531 -25.816406 36.039062 -26.78125 34.28125 -27.53125 C 32.53125 -28.289062 30.039062 -29.148438 26.8125 -30.109375 C 22.132812 -31.554688 18.316406 -33 15.359375 -34.4375 C 12.410156 -35.882812 9.867188 -38.015625 7.734375 -40.828125 C 5.597656 -43.648438 4.53125 -47.332031 4.53125 -51.875 C 4.53125 -58.613281 6.972656 -63.890625 11.859375 -67.703125 C 16.742188 -71.515625 23.101562 -73.421875 30.9375 -73.421875 C 38.914062 -73.421875 45.34375 -71.515625 50.21875 -67.703125 C 55.101562 -63.890625 57.71875 -58.578125 58.0625 -51.765625 L 38.984375 -51.765625 C 38.847656 -54.109375 37.988281 -55.945312 36.40625 -57.28125 C 34.820312 -58.625 32.789062 -59.296875 30.3125 -59.296875 C 28.1875 -59.296875 26.46875 -58.726562 25.15625 -57.59375 C 23.851562 -56.457031 23.203125 -54.828125 23.203125 -52.703125 C 23.203125 -50.359375 24.300781 -48.53125 26.5 -47.21875 C 28.695312 -45.914062 32.132812 -44.507812 36.8125 -43 C 41.488281 -41.414062 45.285156 -39.898438 48.203125 -38.453125 C 51.128906 -37.015625 53.65625 -34.921875 55.78125 -32.171875 C 57.914062 -29.421875 58.984375 -25.878906 58.984375 -21.546875 C 58.984375 -17.421875 57.9375 -13.675781 55.84375 -10.3125 C 53.75 -6.945312 50.707031 -4.265625 46.71875 -2.265625 C 42.726562 -0.273438 38.019531 0.71875 32.59375 0.71875 Z M 32.59375 0.71875 "/></g></g></g></g></g><g transform="matrix(1, 0, 0, 1, 50, 39)"><g clip-path="url(#eb20fc6218)"><g fill="#1a3660" fill-opacity="1"><g transform="translate(1.170557, 109.24653)"><g><path d="M 58.46875 -72.390625 L 58.46875 -58.265625 L 39.296875 -58.265625 L 39.296875 0 L 21.65625 0 L 21.65625 -58.265625 L 2.46875 -58.265625 L 2.46875 -72.390625 Z M 58.46875 -72.390625 "/></g></g></g><g fill="#1a3660" fill-opacity="1"><g transform="translate(62.112182, 109.24653)"><g><path d="M 69.09375 -72.390625 L 69.09375 0 L 51.453125 0 L 51.453125 -29.796875 L 24.03125 -29.796875 L 24.03125 0 L 6.390625 0 L 6.390625 -72.390625 L 24.03125 -72.390625 L 24.03125 -44.03125 L 51.453125 -44.03125 L 51.453125 -72.390625 Z M 69.09375 -72.390625 "/></g></g></g><g fill="#1a3660" fill-opacity="1"><g transform="translate(137.490057, 109.24653)"><g><path d="M 24.03125 -58.265625 L 24.03125 -43.625 L 47.640625 -43.625 L 47.640625 -30.015625 L 24.03125 -30.015625 L 24.03125 -14.125 L 50.734375 -14.125 L 50.734375 0 L 6.390625 0 L 6.390625 -72.390625 L 50.734375 -72.390625 L 50.734375 -58.265625 Z M 24.03125 -58.265625 "/></g></g></g></g></g></svg>